<svg width="17" height="16" viewBox="0 0 17 16" fill="none" xmlns="http://www.w3.org/2000/svg">
<path d="M7.53223 1.35193L8.3127 0.57146C8.64316 0.240991 9.17754 0.240991 9.50449 0.57146L16.3389 7.40232C16.6693 7.73279 16.6693 8.26716 16.3389 8.59412L9.50449 15.4285C9.17402 15.759 8.63965 15.759 8.3127 15.4285L7.53223 14.648C7.19824 14.314 7.20527 13.7691 7.54629 13.4422L11.7826 9.40623H1.67871C1.21113 9.40623 0.834961 9.03005 0.834961 8.56248V7.43748C0.834961 6.9699 1.21113 6.59373 1.67871 6.59373H11.7826L7.54629 2.55779C7.20176 2.23083 7.19473 1.68591 7.53223 1.35193Z" fill="black"/>
</svg>
