<svg width="14" height="12" viewBox="0 0 14 12" fill="none" xmlns="http://www.w3.org/2000/svg">
<path d="M6.08398 0.8293L6.69102 0.222269C6.94805 -0.0347626 7.36367 -0.0347626 7.61797 0.222269L12.9336 5.53516C13.1906 5.79219 13.1906 6.20782 12.9336 6.46211L7.61797 11.7777C7.36094 12.0348 6.94531 12.0348 6.69102 11.7777L6.08398 11.1707C5.82422 10.9109 5.82969 10.4871 6.09492 10.2328L9.38984 7.09375H1.53125C1.16758 7.09375 0.875 6.80118 0.875 6.4375V5.5625C0.875 5.19883 1.16758 4.90625 1.53125 4.90625H9.38984L6.09492 1.76719C5.82695 1.51289 5.82148 1.08907 6.08398 0.8293Z" fill="white"/>
</svg>
