<svg width="40" height="36" viewBox="0 0 40 36" fill="none" xmlns="http://www.w3.org/2000/svg">
<path d="M13.2917 7.45833C13.2917 6.57738 13.4652 5.70506 13.8023 4.89116C14.1394 4.07727 14.6336 3.33775 15.2565 2.71482C15.8794 2.0919 16.6189 1.59777 17.4328 1.26064C18.2467 0.923516 19.119 0.75 20 0.75C20.8809 0.75 21.7533 0.923516 22.5672 1.26064C23.3811 1.59777 24.1206 2.0919 24.7435 2.71482C25.3664 3.33775 25.8606 4.07727 26.1977 4.89116C26.5348 5.70506 26.7083 6.57738 26.7083 7.45833C26.7083 9.23749 26.0016 10.9438 24.7435 12.2018C23.4854 13.4599 21.7792 14.1667 20 14.1667C18.2208 14.1667 16.5145 13.4599 15.2565 12.2018C13.9984 10.9438 13.2917 9.23749 13.2917 7.45833ZM5.625 16.0833C6.89582 16.0833 8.1146 15.5785 9.01322 14.6799C9.91183 13.7813 10.4167 12.5625 10.4167 11.2917C10.4167 10.0208 9.91183 8.80206 9.01322 7.90345C8.1146 7.00483 6.89582 6.5 5.625 6.5C4.35417 6.5 3.13539 7.00483 2.23678 7.90345C1.33816 8.80206 0.833328 10.0208 0.833328 11.2917C0.833328 12.5625 1.33816 13.7813 2.23678 14.6799C3.13539 15.5785 4.35417 16.0833 5.625 16.0833ZM39.1667 11.2917C39.1667 12.5625 38.6618 13.7813 37.7632 14.6799C36.8646 15.5785 35.6458 16.0833 34.375 16.0833C33.1042 16.0833 31.8854 15.5785 30.9868 14.6799C30.0882 13.7813 29.5833 12.5625 29.5833 11.2917C29.5833 10.0208 30.0882 8.80206 30.9868 7.90345C31.8854 7.00483 33.1042 6.5 34.375 6.5C35.6458 6.5 36.8646 7.00483 37.7632 7.90345C38.6618 8.80206 39.1667 10.0208 39.1667 11.2917ZM17.125 18C14.48 18 12.3333 20.1467 12.3333 22.7917V27.5833C12.3333 29.6167 13.1411 31.5667 14.5788 33.0045C16.0166 34.4423 17.9667 35.25 20 35.25C22.0333 35.25 23.9834 34.4423 25.4211 33.0045C26.8589 31.5667 27.6667 29.6167 27.6667 27.5833V22.7917C27.6667 20.1467 25.52 18 22.875 18H17.125ZM8.5 22.7917C8.5 21.6838 8.707 20.6258 9.09033 19.656L4.3715 20.921C3.14468 21.2499 2.09862 22.0523 1.46321 23.1521C0.827791 24.2519 0.655008 25.5589 0.982828 26.786L1.7265 29.5652C1.98715 30.5378 2.43685 31.4496 3.04993 32.2484C3.663 33.0472 4.42743 33.7174 5.29955 34.2207C6.17168 34.7241 7.13442 35.0507 8.13279 35.1819C9.13115 35.3131 10.1456 35.2464 11.1182 34.9855L11.1833 34.9663C9.45002 32.8966 8.50012 30.283 8.5 27.5833V22.7917ZM31.5 27.5833C31.5 30.3932 30.4918 32.9692 28.8167 34.9702L28.878 34.9855C30.8417 35.5112 32.9337 35.2355 34.6942 34.2191C36.4547 33.2026 37.7394 31.5286 38.2658 29.5652L39.0095 26.786C39.3373 25.5589 39.1645 24.2519 38.5291 23.1521C37.8937 22.0523 36.8476 21.2499 35.6208 20.921L30.9135 19.656C31.293 20.6297 31.5 21.6877 31.5 22.7917V27.5833Z" fill="#81FEE8"/>
</svg>
