<svg width="36" height="40" viewBox="0 0 36 40" fill="none" xmlns="http://www.w3.org/2000/svg">
<path fill-rule="evenodd" clip-rule="evenodd" d="M16.6545 1.20707C17.4107 0.923442 18.2371 0.885878 19.0158 1.09973L19.3455 1.20707L32.7622 6.23832C33.4422 6.49327 34.0358 6.93614 34.4738 7.51536C34.9119 8.09459 35.1764 8.78634 35.2366 9.51007L35.25 9.82823V20.1073C35.2496 23.2128 34.4108 26.2606 32.8223 28.929C31.2337 31.5974 28.9542 33.7875 26.2244 35.2681L25.7146 35.5365L19.2861 38.7488C18.9323 38.9259 18.5457 39.028 18.1506 39.0487C17.7555 39.0695 17.3604 39.0085 16.9899 38.8696L16.7139 38.7507L10.2854 35.5346C7.50742 34.1455 5.15599 32.0322 3.47934 29.4177C1.8027 26.8033 0.863046 23.7846 0.759584 20.6804L0.75 20.1054V9.83015C0.750011 9.10398 0.956284 8.39275 1.34481 7.77926C1.73333 7.16577 2.28812 6.67525 2.94458 6.36482L3.23783 6.24023L16.6545 1.20707ZM16.3574 12.6247L12.5413 18.9841C12.3649 19.2779 12.2696 19.6132 12.2652 19.9559C12.2608 20.2985 12.3474 20.6362 12.5162 20.9344C12.685 21.2326 12.9299 21.4806 13.2259 21.6532C13.522 21.8258 13.8585 21.9167 14.2012 21.9166H18.4485L16.3574 25.4031C16.1132 25.8379 16.0481 26.3508 16.176 26.8328C16.3038 27.3149 16.6145 27.7281 17.0421 27.9848C17.4696 28.2415 17.9804 28.3214 18.466 28.2076C18.9515 28.0938 19.3736 27.7953 19.6426 27.3753L23.4587 21.0158C23.6351 20.7221 23.7304 20.3867 23.7348 20.0441C23.7392 19.7015 23.6526 19.3638 23.4838 19.0656C23.315 18.7674 23.0701 18.5193 22.7741 18.3467C22.478 18.1742 22.1415 18.0833 21.7988 18.0833H17.5515L19.6445 14.5969C19.906 14.1608 19.9836 13.6386 19.8601 13.1452C19.7367 12.6519 19.4223 12.2278 18.9861 11.9663C18.55 11.7047 18.0278 11.6272 17.5345 11.7506C17.0411 11.8741 16.619 12.1885 16.3574 12.6247Z" fill="#81FEE8"/>
</svg>
