<svg width="40" height="40" viewBox="0 0 40 40" fill="none" xmlns="http://www.w3.org/2000/svg">
<path fill-rule="evenodd" clip-rule="evenodd" d="M20 39.1666C30.5857 39.1666 39.1667 30.5857 39.1667 19.9999C39.1667 9.41417 30.5857 0.833252 20 0.833252C9.41424 0.833252 0.833328 9.41417 0.833328 19.9999C0.833328 30.5857 9.41424 39.1666 20 39.1666ZM20 14.2499C21.0167 14.2499 21.9917 13.846 22.7106 13.1272C23.4295 12.4083 23.8333 11.4332 23.8333 10.4166C23.8333 9.39992 23.4295 8.4249 22.7106 7.70601C21.9917 6.98712 21.0167 6.58325 20 6.58325C18.9833 6.58325 18.0083 6.98712 17.2894 7.70601C16.5705 8.4249 16.1667 9.39992 16.1667 10.4166C16.1667 11.4332 16.5705 12.4083 17.2894 13.1272C18.0083 13.846 18.9833 14.2499 20 14.2499ZM9.06158 14.8441C8.71343 14.7089 8.32635 14.7146 7.9823 14.8599C7.63825 15.0051 7.36423 15.2786 7.21826 15.6223C7.07229 15.9661 7.06583 16.3531 7.20024 16.7016C7.33466 17.05 7.5994 17.3324 7.93841 17.4891L7.94225 17.491L7.94608 17.4929L7.96525 17.5006L8.02658 17.5274C8.38904 17.6786 8.75456 17.8224 9.12291 17.9587C9.85124 18.2366 10.8747 18.6065 12.0497 18.9745C13.9433 19.5725 16.3353 20.2012 18.5625 20.4082V22.7848C18.5625 23.609 18.3248 24.4198 17.8782 25.1155L13.0406 32.6384C12.9384 32.7972 12.8685 32.9746 12.8348 33.1605C12.8012 33.3463 12.8045 33.537 12.8446 33.7215C12.8846 33.9061 12.9606 34.081 13.0682 34.2361C13.1759 34.3913 13.313 34.5238 13.4718 34.626C13.6307 34.7282 13.808 34.7981 13.9939 34.8317C14.1797 34.8654 14.3704 34.8621 14.5549 34.822C14.7395 34.782 14.9144 34.706 15.0696 34.5983C15.2247 34.4907 15.3572 34.3536 15.4594 34.1948L20.0019 27.1299L24.5406 34.1948C24.6428 34.3536 24.7752 34.4907 24.9304 34.5983C25.0856 34.706 25.2605 34.782 25.4451 34.822C25.6296 34.8621 25.8203 34.8654 26.0061 34.8317C26.1919 34.7981 26.3693 34.7282 26.5282 34.626C26.687 34.5238 26.8241 34.3913 26.9318 34.2361C27.0394 34.081 27.1154 33.9061 27.1554 33.7215C27.1955 33.537 27.1988 33.3463 27.1651 33.1605C27.1315 32.9746 27.0616 32.7972 26.9594 32.6384L22.1217 25.1155C21.6747 24.4197 21.4372 23.61 21.4375 22.7829V20.4082C23.6647 20.2012 26.0567 19.5725 27.9522 18.9745C29.3113 18.5457 30.6528 18.063 31.9734 17.5274L32.0367 17.5006L32.0558 17.4929L32.0597 17.491C32.4044 17.3382 32.6754 17.056 32.814 16.7053C32.9527 16.3545 32.9479 15.9634 32.8008 15.6161C32.6537 15.2688 32.376 14.9933 32.0276 14.8489C31.6792 14.7045 31.2881 14.7027 30.9384 14.8441L30.925 14.8498L30.8732 14.8709L30.6624 14.9572C30.4733 15.0351 30.205 15.1399 29.8574 15.2715C29.1674 15.5341 28.1995 15.8848 27.0897 16.2337C24.8319 16.9428 22.1294 17.6041 20 17.6041C17.8706 17.6041 15.17 16.9428 12.9122 16.2337C11.6338 15.8286 10.3717 15.374 9.12866 14.8709L9.075 14.8498L9.06158 14.8441Z" fill="#81FEE8"/>
</svg>
