<svg width="36" height="36" viewBox="0 0 36 36" fill="none" xmlns="http://www.w3.org/2000/svg">
<path d="M31.4167 0.75H4.58333C2.45583 0.75 0.75 2.45583 0.75 4.58333V31.4167C0.75 32.4333 1.15387 33.4084 1.87276 34.1272C2.59165 34.8461 3.56667 35.25 4.58333 35.25H31.4167C33.5442 35.25 35.25 33.5442 35.25 31.4167V4.58333C35.25 3.56667 34.8461 2.59165 34.1272 1.87276C33.4084 1.15387 32.4333 0.75 31.4167 0.75ZM25.8583 25.475C23.8842 25.475 22.0058 24.7083 20.5875 23.29L19.3608 22.0633L22.0825 19.3608L23.29 20.5683C23.7982 21.0777 24.4461 21.4249 25.1516 21.5659C25.8572 21.7069 26.5888 21.6354 27.2537 21.3604C27.9186 21.0854 28.4869 20.6193 28.8868 20.0211C29.2867 19.4229 29.5001 18.7195 29.5 18C29.5 17.0342 29.1163 16.1079 28.4334 15.425C27.7504 14.742 26.8242 14.3583 25.8583 14.3583C24.9 14.3583 23.98 14.7417 23.29 15.4317L15.4125 23.29C14.723 23.9858 13.9018 24.5374 12.9968 24.9126C12.0919 25.2877 11.1213 25.4789 10.1417 25.475C6.02083 25.475 2.66667 22.1208 2.66667 18C2.66667 13.8792 6.02083 10.525 10.1417 10.525C12.135 10.525 13.9942 11.2917 15.4125 12.71L16.6392 13.9367L13.9175 16.6583L12.71 15.4317C12.02 14.7417 11.1 14.3583 10.1417 14.3583C9.17584 14.3583 8.24956 14.742 7.56662 15.425C6.88367 16.1079 6.5 17.0342 6.5 18C6.5 18.9658 6.88367 19.8921 7.56662 20.575C8.24956 21.258 9.17584 21.6417 10.1417 21.6417C11.1 21.6417 12.02 21.2583 12.71 20.5683L20.5875 12.71C21.277 12.0142 22.0982 11.4626 23.0032 11.0874C23.9081 10.7123 24.8787 10.5211 25.8583 10.525C29.9792 10.525 33.3333 13.8792 33.3333 18C33.3333 22.1208 29.9792 25.475 25.8583 25.475Z" fill="#81FEE8"/>
</svg>
