<svg width="38" height="38" viewBox="0 0 38 38" fill="none" xmlns="http://www.w3.org/2000/svg">
<path d="M19 0.3125C8.69582 0.3125 0.3125 8.69582 0.3125 19C0.3125 29.3042 8.69582 37.6875 19 37.6875C29.3042 37.6875 37.6875 29.3042 37.6875 19C37.6875 8.69582 29.3042 0.3125 19 0.3125ZM23.3296 11.2213L25.4948 13.1134L18.8814 20.6693L16.7162 18.5975L23.3296 11.2213ZM13.2437 26.7832L6.90434 20.4375L8.9375 18.4043L15.2778 24.75L13.2437 26.7832ZM19.0836 26.8541L12.6705 20.4375L14.7046 18.4052L18.9416 22.6468L28.9259 11.2213L31.0912 13.1134L19.0836 26.8541Z" fill="#81FEE8"/>
</svg>
