<svg width="111" height="116" viewBox="0 0 111 116" fill="none" xmlns="http://www.w3.org/2000/svg">
<ellipse cx="55.5" cy="58" rx="55.5" ry="58" fill="white" fill-opacity="0.08"/>
<path d="M55.5 0.150391C86.0628 0.150391 110.85 26.044 110.85 58C110.85 89.956 86.0628 115.85 55.5 115.85C24.9372 115.85 0.150391 89.956 0.150391 58C0.150391 26.044 24.9372 0.150391 55.5 0.150391Z" stroke="white" stroke-opacity="0.42" stroke-width="0.3"/>
<path d="M55.5001 11.9316C80.0341 11.9317 99.9317 32.5518 99.9317 58C99.9317 83.4482 80.0341 104.068 55.5001 104.068C30.966 104.068 11.0684 83.4482 11.0684 58C11.0684 32.5518 30.966 11.9316 55.5001 11.9316Z" fill="white" fill-opacity="0.17" stroke="white" stroke-width="0.3"/>
<ellipse cx="55.5" cy="58" rx="33.6639" ry="35.3438" fill="white"/>
<path d="M52.0899 67.5967L60.5257 58.705C60.6616 58.5617 60.7707 58.3839 60.8455 58.1839C60.9203 57.9838 60.959 57.7662 60.959 57.546C60.959 57.3258 60.9203 57.1083 60.8455 56.9082C60.7707 56.7081 60.6616 56.5304 60.5257 56.387L52.0899 47.4953C51.2847 46.6468 50.041 47.3503 50.041 48.6544V66.4403C50.041 67.7443 51.2847 68.4479 52.0899 67.5967Z" fill="#1C1F35"/>
</svg>
