<svg width="22" height="22" viewBox="0 0 22 22" fill="none" xmlns="http://www.w3.org/2000/svg">
<path d="M11 0C12.0098 0 12.9837 0.128906 13.9219 0.386719C14.86 0.644531 15.7337 1.01693 16.543 1.50391C17.3522 1.99089 18.0934 2.5638 18.7666 3.22266C19.4398 3.88151 20.0163 4.62272 20.4961 5.44629C20.9759 6.26986 21.3447 7.14714 21.6025 8.07812C21.8604 9.00911 21.9928 9.98307 22 11C22 12.0098 21.8711 12.9837 21.6133 13.9219C21.3555 14.86 20.9831 15.7337 20.4961 16.543C20.0091 17.3522 19.4362 18.0934 18.7773 18.7666C18.1185 19.4398 17.3773 20.0163 16.5537 20.4961C15.7301 20.9759 14.8529 21.3447 13.9219 21.6025C12.9909 21.8604 12.0169 21.9928 11 22C9.99023 22 9.01628 21.8711 8.07812 21.6133C7.13997 21.3555 6.26628 20.9831 5.45703 20.4961C4.64779 20.0091 3.90658 19.4362 3.2334 18.7773C2.56022 18.1185 1.98372 17.3773 1.50391 16.5537C1.02409 15.7301 0.655273 14.8529 0.397461 13.9219C0.139648 12.9909 0.00716146 12.0169 0 11C0 9.99023 0.128906 9.01628 0.386719 8.07812C0.644531 7.13997 1.01693 6.26628 1.50391 5.45703C1.99089 4.64779 2.5638 3.90658 3.22266 3.2334C3.88151 2.56022 4.62272 1.98372 5.44629 1.50391C6.26986 1.02409 7.14714 0.655273 8.07812 0.397461C9.00911 0.139648 9.98307 0.00716146 11 0ZM11 16.7363C11.5514 16.7363 12.085 16.6611 12.6006 16.5107C13.1162 16.3604 13.6032 16.1383 14.0615 15.8447C14.5199 15.5511 14.9281 15.2074 15.2861 14.8135C15.6442 14.4196 15.945 13.9684 16.1885 13.46L14.5127 12.665C14.348 13.0016 14.1439 13.306 13.9004 13.5781C13.6569 13.8503 13.3812 14.083 13.0732 14.2764C12.7653 14.4697 12.4359 14.6201 12.085 14.7275C11.734 14.835 11.3724 14.8887 11 14.8887C10.4844 14.8887 9.99382 14.7884 9.52832 14.5879C9.06283 14.3874 8.64388 14.1081 8.27148 13.75H9.625V12.375H5.5V16.5H6.875V14.9746C7.41211 15.5332 8.03874 15.9665 8.75488 16.2744C9.47103 16.5824 10.2194 16.7363 11 16.7363ZM16.5 9.625V5.5H15.125V7.02539C14.5879 6.4668 13.9613 6.03353 13.2451 5.72559C12.529 5.41764 11.7806 5.26367 11 5.26367C10.4486 5.26367 9.91504 5.33887 9.39941 5.48926C8.88379 5.63965 8.39681 5.86165 7.93848 6.15527C7.48014 6.44889 7.07194 6.79264 6.71387 7.18652C6.35579 7.5804 6.05501 8.03158 5.81152 8.54004L7.4873 9.33496C7.64486 8.99837 7.84538 8.69401 8.08887 8.42188C8.33236 8.14974 8.61165 7.91699 8.92676 7.72363C9.24186 7.53027 9.57129 7.37988 9.91504 7.27246C10.2588 7.16504 10.6204 7.11133 11 7.11133C11.5156 7.11133 12.0062 7.21159 12.4717 7.41211C12.9372 7.61263 13.3561 7.89193 13.7285 8.25H12.375V9.625H16.5Z" fill="#81FEE8"/>
</svg>
